# xmcd
#
# Track frame offsets:
#	150
#	14690
#	27049
#	46543
#	60959
#	82367
#	102379
#	116305
#	136568
#	155250
#	179963
#	192651
#
# Disc length: 2911 seconds
#
# Revision: 0
# Processed by: cddbd v1.5.2PL0 Copyright (c) Steve Scherf et al.
# Submitted via: EasyCDDAExtractor 4.6.9.1
#
DISCID=990b5d0c
DTITLE=Dan Bigras - Fan
DYEAR=2009
DGENRE=Francophone
TTITLE0=Hit the road Jack
TTITLE1=La grange
TTITLE2=Me and Mrs. Jones
TTITLE3=Minnie the moocher
TTITLE4=Hallelujah
TTITLE5=Just a gigolo - Ain't got nobody
TTITLE6=Puttin' on the Ritz/Sweet Georgia Brown
TTITLE7=9 Lives boogie
TTITLE8=When a man loves a woman
TTITLE9=Câline de blues
TTITLE10=Bigras shuffle
TTITLE11=Fever
EXTD=
EXTT0=
EXTT1=
EXTT2=
EXTT3=
EXTT4=
EXTT5=
EXTT6=
EXTT7=
EXTT8=
EXTT9=
EXTT10=
EXTT11=
PLAYORDER=
